{
  "title": "Minions.2015.1080p.HDRip.KORSUB.x264.AAC2.0-RARBG",
  "uid": 12301039,
  "size": 2728907678,
  "categoryP": "video",
  "categoryS": "movies",
  "magnet": "?xt=urn:btih:0a85b27d2bafbb4722a3f4199b9aab19d5890551&amp;dn=Minions.2015.1080p.HDRip.KORSUB.x264.AAC2.0-RARBG&amp;tr=udp%3A%2F%2Ftracker.openbittorrent.com%3A80&amp;tr=udp%3A%2F%2Fopen.demonii.com%3A1337&amp;tr=udp%3A%2F%2Ftracker.coppersurfer.tk%3A6969&amp;tr=udp%3A%2F%2Fexodus.desync.com%3A6969",
  "seeders": 311,
  "leechers": 244,
  "uploader": "vickey1992",
  "files": 4,
  "time": 1440698988,
  "description": "Video\nID                                       : 1\nFormat                                   : AVC\nFormat/Info                              : Advanced Video Codec\nFormat profile                           : &lt;a class=&quot;__cf_email__&quot; href=&quot;/cdn-cgi/l/email-protection&quot; data-cfemail=&quot;1e567779765e522a302f&quot;&gt;[email&amp;#160;protected]&lt;/a&gt;&lt;script data-cfhash='f9e31' type=&quot;text/javascript&quot;&gt;\n/* &lt;![CDATA[ */!function(){try{var t=&quot;currentScript&quot;in document?document.currentScript:function(){for(var t=document.getElementsByTagName(&quot;script&quot;),e=t.length;e--;)if(t[e].getAttribute(&quot;data-cfhash&quot;))return t[e]}();if(t&amp;&amp;t.previousSibling){var e,r,n,i,c=t.previousSibling,a=c.getAttribute(&quot;data-cfemail&quot;);if(a){for(e=&quot;&quot;,r=parseInt(a.substr(0,2),16),n=2;a.length-n;n+=2)i=parseInt(a.substr(n,2),16)^r,e+=String.fromCharCode(i);e=document.createTextNode(e),c.parentNode.replaceChild(e,c)}t.parentNode.removeChild(t);}}catch(u){}}()/* ]]&gt; */&lt;/script&gt;\nFormat settings, CABAC                   : Yes\nFormat settings, ReFrames                : 4 frames\nFormat settings, GOP                     : M=1, N=12\nCodec ID                                 : avc1\nCodec ID/Info                            : Advanced Video Coding\nDuration                                 : 1h 26mn\nBit rate                                 : 3 986 Kbps\nWidth                                    : 1 892 pixels\nHeight                                   : 1 024 pixels\nDisplay aspect ratio                     : 1.85:1\nFrame rate mode                          : Constant\nFrame rate                               : 23.976 fps\nStandard                                 : Component\nColor space                              : YUV\nChroma subsampling                       : 4:2:0\nBit depth                                : 8 bits\nScan type                                : Progressive\nBits/(Pixel*Frame)                       : 0.086\nStream size                              : 2.40 GiB (95%)\nTitle                                    : Minions.2015.1080p.HDRip.KORSUB.x264.AAC2.0-RARBG\nLanguage                                 : English\nColor range                              : Limited\n\nAudio\nID                                       : 2\nFormat                                   : AAC\nFormat/Info                              : Advanced Audio Codec\nFormat profile                           : LC\nCodec ID                                 : 40\nDuration                                 : 1h 26mn\nBit rate mode                            : Constant\nBit rate                                 : 224 Kbps\nChannel(s)                               : 2 channels\nChannel positions                        : Front: L R\nSampling rate                            : 48.0 KHz\nCompression mode                         : Lossy\nStream size                              : 138 MiB (5%)\nTitle                                    : Minions.2015.1080p.HDRip.KORSUB.x264.AAC2.0-RARBG\nLanguage                                 : English",
  "parsed": {
    "xt": "urn:btih:0a85b27d2bafbb4722a3f4199b9aab19d5890551",
    "dn": "Minions.2015.1080p.HDRip.KORSUB.x264.AAC2.0-RARBG",
    "tr": [
      "udp://exodus.desync.com:6969",
      "udp://open.demonii.com:1337",
      "udp://tracker.coppersurfer.tk:6969",
      "udp://tracker.openbittorrent.com:80"
    ],
    "infoHash": "0a85b27d2bafbb4722a3f4199b9aab19d5890551",
    "infoHashBuffer": {
      "type": "Buffer",
      "data": [
        10,
        133,
        178,
        125,
        43,
        175,
        187,
        71,
        34,
        163,
        244,
        25,
        155,
        154,
        171,
        25,
        213,
        137,
        5,
        81
      ]
    },
    "name": "Minions.2015.1080p.HDRip.KORSUB.x264.AAC2.0-RARBG",
    "announce": [
      "udp://exodus.desync.com:6969",
      "udp://open.demonii.com:1337",
      "udp://tracker.coppersurfer.tk:6969",
      "udp://tracker.openbittorrent.com:80"
    ],
    "urlList": []
  },
  "previous": 555,
  "peers": 11,
  "last_updated": "2016-12-24T16:35:04.173Z"
}